<mxfile host="65bd71144e">
    <diagram id="XgIC--hMKknNDpsjKz-m" name="Page-1">
        <mxGraphModel dx="1490" dy="1238" grid="1" gridSize="10" guides="1" tooltips="1" connect="1" arrows="1" fold="1" page="1" pageScale="1" pageWidth="850" pageHeight="1100" math="0" shadow="0">
            <root>
                <mxCell id="0"/>
                <mxCell id="1" parent="0"/>
                <mxCell id="4" value="" style="edgeStyle=none;html=1;" edge="1" parent="1" source="2" target="3">
                    <mxGeometry relative="1" as="geometry"/>
                </mxCell>
                <mxCell id="6" value="" style="edgeStyle=none;html=1;" edge="1" parent="1" source="5" target="2">
                    <mxGeometry relative="1" as="geometry"/>
                </mxCell>
                <mxCell id="8" value="" style="edgeStyle=none;html=1;" edge="1" parent="1" source="2" target="7">
                    <mxGeometry relative="1" as="geometry"/>
                </mxCell>
                <mxCell id="2" value="&lt;div style=&quot;color: rgb(212, 212, 212); background-color: rgb(30, 30, 30); font-family: &amp;quot;JetBrains Mono&amp;quot;, Consolas, &amp;quot;Courier New&amp;quot;, monospace; font-size: 16px; line-height: 26px;&quot;&gt;&lt;span style=&quot;color: #ce9178;&quot;&gt;server.js&lt;/span&gt;&lt;/div&gt;" style="rounded=1;whiteSpace=wrap;html=1;" vertex="1" parent="1">
                    <mxGeometry x="90" y="115" width="120" height="60" as="geometry"/>
                </mxCell>
                <mxCell id="10" value="" style="edgeStyle=none;html=1;fontSize=10;" edge="1" parent="1" source="3" target="9">
                    <mxGeometry relative="1" as="geometry"/>
                </mxCell>
                <mxCell id="14" value="" style="edgeStyle=none;html=1;fontSize=10;" edge="1" parent="1" source="3" target="13">
                    <mxGeometry relative="1" as="geometry"/>
                </mxCell>
                <mxCell id="3" value="&lt;div style=&quot;color: rgb(212, 212, 212); background-color: rgb(30, 30, 30); font-family: &amp;quot;JetBrains Mono&amp;quot;, Consolas, &amp;quot;Courier New&amp;quot;, monospace; font-size: 16px; line-height: 26px;&quot;&gt;&lt;span style=&quot;color: #ce9178;&quot;&gt;/src/app.js&lt;/span&gt;&lt;/div&gt;" style="whiteSpace=wrap;html=1;rounded=1;" vertex="1" parent="1">
                    <mxGeometry x="90" y="350" width="120" height="60" as="geometry"/>
                </mxCell>
                <mxCell id="5" value="&lt;div style=&quot;background-color: rgb(30, 30, 30); line-height: 26px;&quot;&gt;&lt;font face=&quot;JetBrains Mono, Consolas, Courier New, monospace&quot; color=&quot;#ce9178&quot;&gt;&lt;span style=&quot;font-size: 16px;&quot;&gt;package.json&lt;/span&gt;&lt;/font&gt;&lt;br&gt;&lt;/div&gt;&lt;div style=&quot;background-color: rgb(30, 30, 30); line-height: 26px;&quot;&gt;&lt;div style=&quot;color: rgb(212, 212, 212); font-family: &amp;quot;JetBrains Mono&amp;quot;, Consolas, &amp;quot;Courier New&amp;quot;, monospace; font-size: 16px; line-height: 26px;&quot;&gt;&lt;span style=&quot;color: #ce9178;&quot;&gt;nodemon server.js&lt;/span&gt;&lt;/div&gt;&lt;/div&gt;" style="rounded=1;whiteSpace=wrap;html=1;" vertex="1" parent="1">
                    <mxGeometry x="50" y="10" width="200" height="60" as="geometry"/>
                </mxCell>
                <mxCell id="7" value="&lt;div style=&quot;color: rgb(212, 212, 212); background-color: rgb(30, 30, 30); font-family: &amp;quot;JetBrains Mono&amp;quot;, Consolas, &amp;quot;Courier New&amp;quot;, monospace; font-size: 10px; line-height: 26px;&quot;&gt;&lt;div style=&quot;font-size: 10px;&quot;&gt;&lt;span style=&quot;color: rgb(86, 156, 214); font-size: 10px;&quot;&gt;const&lt;/span&gt; &lt;span style=&quot;color: rgb(79, 193, 255); font-size: 10px;&quot;&gt;port&lt;/span&gt; = &lt;span style=&quot;color: rgb(181, 206, 168); font-size: 10px;&quot;&gt;3000&lt;/span&gt;;&lt;/div&gt;&lt;div style=&quot;font-size: 10px;&quot;&gt;&lt;span style=&quot;color: rgb(156, 220, 254); font-size: 10px;&quot;&gt;app&lt;/span&gt;.&lt;span style=&quot;color: rgb(220, 220, 170); font-size: 10px;&quot;&gt;listen&lt;/span&gt;(&lt;span style=&quot;color: rgb(156, 220, 254); font-size: 10px;&quot;&gt;port&lt;/span&gt;, () &lt;span style=&quot;color: rgb(86, 156, 214); font-size: 10px;&quot;&gt;=&amp;gt;&lt;/span&gt; {&lt;/div&gt;&lt;div style=&quot;font-size: 10px;&quot;&gt;&amp;nbsp; &lt;span style=&quot;color: rgb(156, 220, 254); font-size: 10px;&quot;&gt;console&lt;/span&gt;.&lt;span style=&quot;color: rgb(220, 220, 170); font-size: 10px;&quot;&gt;log&lt;/span&gt;(&lt;span style=&quot;color: rgb(206, 145, 120); font-size: 10px;&quot;&gt;`Servidor escutando em http://localhost:&lt;/span&gt;&lt;span style=&quot;color: rgb(86, 156, 214); font-size: 10px;&quot;&gt;${&lt;/span&gt;&lt;span style=&quot;color: rgb(156, 220, 254); font-size: 10px;&quot;&gt;port&lt;/span&gt;&lt;span style=&quot;color: rgb(86, 156, 214); font-size: 10px;&quot;&gt;}&lt;/span&gt;&lt;span style=&quot;color: rgb(206, 145, 120); font-size: 10px;&quot;&gt;`&lt;/span&gt;)&lt;/div&gt;&lt;div style=&quot;font-size: 10px;&quot;&gt;})&lt;/div&gt;&lt;/div&gt;" style="shape=document;whiteSpace=wrap;html=1;boundedLbl=1;rounded=1;align=left;fontSize=10;spacingLeft=10;" vertex="1" parent="1">
                    <mxGeometry x="280" y="70" width="440" height="150" as="geometry"/>
                </mxCell>
                <mxCell id="18" value="" style="edgeStyle=none;html=1;fontSize=10;exitX=0;exitY=0.25;exitDx=0;exitDy=0;" edge="1" parent="1" source="9" target="17">
                    <mxGeometry relative="1" as="geometry">
                        <Array as="points">
                            <mxPoint x="30" y="690"/>
                        </Array>
                    </mxGeometry>
                </mxCell>
                <mxCell id="20" value="" style="edgeStyle=none;html=1;fontSize=10;exitX=0.75;exitY=1;exitDx=0;exitDy=0;entryX=0.377;entryY=-0.055;entryDx=0;entryDy=0;entryPerimeter=0;" edge="1" parent="1" source="9" target="19">
                    <mxGeometry relative="1" as="geometry"/>
                </mxCell>
                <mxCell id="22" value="" style="edgeStyle=none;html=1;fontSize=10;" edge="1" parent="1" source="9" target="21">
                    <mxGeometry relative="1" as="geometry"/>
                </mxCell>
                <mxCell id="9" value="&lt;div style=&quot;color: rgb(212, 212, 212); background-color: rgb(30, 30, 30); font-family: &amp;quot;JetBrains Mono&amp;quot;, Consolas, &amp;quot;Courier New&amp;quot;, monospace; font-size: 16px; line-height: 26px;&quot;&gt;&lt;div style=&quot;line-height: 26px;&quot;&gt;&lt;span style=&quot;color: #ce9178;&quot;&gt;/src/routes/index.js&lt;/span&gt;&lt;/div&gt;&lt;/div&gt;" style="whiteSpace=wrap;html=1;rounded=1;" vertex="1" parent="1">
                    <mxGeometry x="55" y="600" width="190" height="60" as="geometry"/>
                </mxCell>
                <mxCell id="13" value="&lt;div style=&quot;color: rgb(212, 212, 212); background-color: rgb(30, 30, 30); font-family: &amp;quot;JetBrains Mono&amp;quot;, Consolas, &amp;quot;Courier New&amp;quot;, monospace; font-size: 10px; line-height: 26px;&quot;&gt;&lt;div style=&quot;font-size: 10px;&quot;&gt;&lt;span style=&quot;color: rgb(156, 220, 254); font-size: 10px;&quot;&gt;db&lt;/span&gt;.&lt;span style=&quot;color: rgb(220, 220, 170); font-size: 10px;&quot;&gt;on&lt;/span&gt;(&lt;span style=&quot;color: rgb(206, 145, 120); font-size: 10px;&quot;&gt;&quot;error&quot;&lt;/span&gt;, &lt;span style=&quot;color: rgb(156, 220, 254); font-size: 10px;&quot;&gt;console&lt;/span&gt;.&lt;span style=&quot;color: rgb(156, 220, 254); font-size: 10px;&quot;&gt;log&lt;/span&gt;.&lt;span style=&quot;color: rgb(220, 220, 170); font-size: 10px;&quot;&gt;bind&lt;/span&gt;(&lt;span style=&quot;color: rgb(156, 220, 254); font-size: 10px;&quot;&gt;console&lt;/span&gt;, &lt;span style=&quot;color: rgb(206, 145, 120); font-size: 10px;&quot;&gt;'Erro de conexão'&lt;/span&gt;));&lt;/div&gt;&lt;div style=&quot;font-size: 10px;&quot;&gt;&lt;span style=&quot;color: rgb(156, 220, 254); font-size: 10px;&quot;&gt;db&lt;/span&gt;.&lt;span style=&quot;color: rgb(220, 220, 170); font-size: 10px;&quot;&gt;once&lt;/span&gt;(&lt;span style=&quot;color: rgb(206, 145, 120); font-size: 10px;&quot;&gt;&quot;open&quot;&lt;/span&gt;, () &lt;span style=&quot;color: rgb(86, 156, 214); font-size: 10px;&quot;&gt;=&amp;gt;&lt;/span&gt; {&lt;/div&gt;&lt;div style=&quot;font-size: 10px;&quot;&gt;&amp;nbsp; &lt;span style=&quot;color: rgb(156, 220, 254); font-size: 10px;&quot;&gt;console&lt;/span&gt;.&lt;span style=&quot;color: rgb(220, 220, 170); font-size: 10px;&quot;&gt;log&lt;/span&gt;(&lt;span style=&quot;color: rgb(206, 145, 120); font-size: 10px;&quot;&gt;'conexão com o banco feita com sucesso'&lt;/span&gt;);&lt;/div&gt;&lt;div style=&quot;font-size: 10px;&quot;&gt;})&lt;/div&gt;&lt;div style=&quot;font-size: 10px;&quot;&gt;&lt;span style=&quot;color: rgb(86, 156, 214);&quot;&gt;const&lt;/span&gt; &lt;span style=&quot;color: rgb(79, 193, 255);&quot;&gt;app&lt;/span&gt; = &lt;span style=&quot;color: rgb(220, 220, 170);&quot;&gt;express&lt;/span&gt;();&lt;/div&gt;&lt;div style=&quot;font-size: 10px;&quot;&gt;&lt;span style=&quot;color: rgb(220, 220, 170); font-size: 10px;&quot;&gt;routes&lt;/span&gt;(&lt;span style=&quot;color: rgb(156, 220, 254); font-size: 10px;&quot;&gt;app&lt;/span&gt;);&lt;/div&gt;&lt;div style=&quot;font-size: 10px;&quot;&gt;&lt;span style=&quot;color: rgb(197, 134, 192); font-size: 10px;&quot;&gt;export&lt;/span&gt; &lt;span style=&quot;color: rgb(197, 134, 192); font-size: 10px;&quot;&gt;default&lt;/span&gt; &lt;span style=&quot;color: rgb(156, 220, 254); font-size: 10px;&quot;&gt;app&lt;/span&gt;;&lt;/div&gt;&lt;/div&gt;" style="shape=document;whiteSpace=wrap;html=1;boundedLbl=1;rounded=1;align=left;fontSize=10;spacingLeft=10;shadow=0;" vertex="1" parent="1">
                    <mxGeometry x="280" y="240" width="440" height="270" as="geometry"/>
                </mxCell>
                <mxCell id="17" value="&lt;div style=&quot;color: rgb(212, 212, 212); background-color: rgb(30, 30, 30); font-family: &amp;quot;JetBrains Mono&amp;quot;, Consolas, &amp;quot;Courier New&amp;quot;, monospace; font-size: 16px; line-height: 26px;&quot;&gt;&lt;div style=&quot;line-height: 26px;&quot;&gt;&lt;span style=&quot;color: #ce9178;&quot;&gt;express&lt;/span&gt;&lt;/div&gt;&lt;/div&gt;" style="whiteSpace=wrap;html=1;rounded=1;" vertex="1" parent="1">
                    <mxGeometry x="15" y="750" width="75" height="60" as="geometry"/>
                </mxCell>
                <mxCell id="19" value="&lt;div style=&quot;background-color: rgb(30, 30, 30); line-height: 26px; font-size: 16px; font-family: &amp;quot;JetBrains Mono&amp;quot;, Consolas, &amp;quot;Courier New&amp;quot;, monospace; color: rgb(212, 212, 212);&quot;&gt;&lt;div style=&quot;line-height: 26px;&quot;&gt;&lt;span style=&quot;color: #ce9178;&quot;&gt;/src/routes/&lt;/span&gt;&lt;span style=&quot;color: rgb(206, 145, 120);&quot;&gt;livrosRoutes.js&lt;/span&gt;&lt;br&gt;&lt;/div&gt;&lt;/div&gt;" style="whiteSpace=wrap;html=1;rounded=1;" vertex="1" parent="1">
                    <mxGeometry x="100" y="750" width="260" height="60" as="geometry"/>
                </mxCell>
                <mxCell id="21" value="&#10;&lt;div style=&quot;color: rgb(212, 212, 212); background-color: rgb(30, 30, 30); font-family: &amp;quot;JetBrains Mono&amp;quot;, Consolas, &amp;quot;Courier New&amp;quot;, monospace; font-weight: normal; font-size: 16px; line-height: 26px;&quot;&gt;&lt;div&gt;&lt;span style=&quot;color: #569cd6;&quot;&gt;const&lt;/span&gt;&lt;span style=&quot;color: #d4d4d4;&quot;&gt; &lt;/span&gt;&lt;span style=&quot;color: #dcdcaa;&quot;&gt;routes&lt;/span&gt;&lt;span style=&quot;color: #d4d4d4;&quot;&gt; = (&lt;/span&gt;&lt;span style=&quot;color: #9cdcfe;&quot;&gt;app&lt;/span&gt;&lt;span style=&quot;color: #d4d4d4;&quot;&gt;) &lt;/span&gt;&lt;span style=&quot;color: #569cd6;&quot;&gt;=&amp;gt;&lt;/span&gt;&lt;span style=&quot;color: #d4d4d4;&quot;&gt; {&lt;/span&gt;&lt;/div&gt;&lt;div&gt;&lt;span style=&quot;color: #d4d4d4;&quot;&gt;&amp;nbsp; &lt;/span&gt;&lt;span style=&quot;color: #9cdcfe;&quot;&gt;app&lt;/span&gt;&lt;span style=&quot;color: #d4d4d4;&quot;&gt;.&lt;/span&gt;&lt;span style=&quot;color: #dcdcaa;&quot;&gt;route&lt;/span&gt;&lt;span style=&quot;color: #d4d4d4;&quot;&gt;(&lt;/span&gt;&lt;span style=&quot;color: #ce9178;&quot;&gt;'/'&lt;/span&gt;&lt;span style=&quot;color: #d4d4d4;&quot;&gt;).&lt;/span&gt;&lt;span style=&quot;color: #dcdcaa;&quot;&gt;get&lt;/span&gt;&lt;span style=&quot;color: #d4d4d4;&quot;&gt;((&lt;/span&gt;&lt;span style=&quot;color: #9cdcfe;&quot;&gt;req&lt;/span&gt;&lt;span style=&quot;color: #d4d4d4;&quot;&gt;, &lt;/span&gt;&lt;span style=&quot;color: #9cdcfe;&quot;&gt;res&lt;/span&gt;&lt;span style=&quot;color: #d4d4d4;&quot;&gt;) &lt;/span&gt;&lt;span style=&quot;color: #569cd6;&quot;&gt;=&amp;gt;&lt;/span&gt;&lt;span style=&quot;color: #d4d4d4;&quot;&gt; {&lt;/span&gt;&lt;/div&gt;&lt;div&gt;&lt;span style=&quot;color: #d4d4d4;&quot;&gt;&amp;nbsp; &amp;nbsp; &lt;/span&gt;&lt;span style=&quot;color: #9cdcfe;&quot;&gt;res&lt;/span&gt;&lt;span style=&quot;color: #d4d4d4;&quot;&gt;.&lt;/span&gt;&lt;span style=&quot;color: #dcdcaa;&quot;&gt;status&lt;/span&gt;&lt;span style=&quot;color: #d4d4d4;&quot;&gt;(&lt;/span&gt;&lt;span style=&quot;color: #b5cea8;&quot;&gt;200&lt;/span&gt;&lt;span style=&quot;color: #d4d4d4;&quot;&gt;).&lt;/span&gt;&lt;span style=&quot;color: #dcdcaa;&quot;&gt;send&lt;/span&gt;&lt;span style=&quot;color: #d4d4d4;&quot;&gt;({&lt;/span&gt;&lt;span style=&quot;color: #9cdcfe;&quot;&gt;titulo:&lt;/span&gt;&lt;span style=&quot;color: #d4d4d4;&quot;&gt; &lt;/span&gt;&lt;span style=&quot;color: #ce9178;&quot;&gt;&quot;Curso de Node&quot;&lt;/span&gt;&lt;span style=&quot;color: #d4d4d4;&quot;&gt;});&lt;/span&gt;&lt;/div&gt;&lt;div&gt;&lt;span style=&quot;color: #d4d4d4;&quot;&gt;&amp;nbsp; })&lt;/span&gt;&lt;/div&gt;&lt;br&gt;&lt;div&gt;&lt;span style=&quot;color: #d4d4d4;&quot;&gt;&amp;nbsp; &lt;/span&gt;&lt;span style=&quot;color: #9cdcfe;&quot;&gt;app&lt;/span&gt;&lt;span style=&quot;color: #d4d4d4;&quot;&gt;.&lt;/span&gt;&lt;span style=&quot;color: #dcdcaa;&quot;&gt;use&lt;/span&gt;&lt;span style=&quot;color: #d4d4d4;&quot;&gt;(&lt;/span&gt;&lt;/div&gt;&lt;div&gt;&lt;span style=&quot;color: #d4d4d4;&quot;&gt;&amp;nbsp; &amp;nbsp; &lt;/span&gt;&lt;span style=&quot;color: #9cdcfe;&quot;&gt;express&lt;/span&gt;&lt;span style=&quot;color: #d4d4d4;&quot;&gt;.&lt;/span&gt;&lt;span style=&quot;color: #dcdcaa;&quot;&gt;json&lt;/span&gt;&lt;span style=&quot;color: #d4d4d4;&quot;&gt;(),&lt;/span&gt;&lt;/div&gt;&lt;div&gt;&lt;span style=&quot;color: #d4d4d4;&quot;&gt;&amp;nbsp; &amp;nbsp; &lt;/span&gt;&lt;span style=&quot;color: #9cdcfe;&quot;&gt;livros&lt;/span&gt;&lt;/div&gt;&lt;div&gt;&lt;span style=&quot;color: #d4d4d4;&quot;&gt;&amp;nbsp; )&lt;/span&gt;&lt;/div&gt;&lt;div&gt;&lt;span style=&quot;color: #d4d4d4;&quot;&gt;}&lt;/span&gt;&lt;/div&gt;&lt;br&gt;&lt;div&gt;&lt;span style=&quot;color: #c586c0;&quot;&gt;export&lt;/span&gt;&lt;span style=&quot;color: #d4d4d4;&quot;&gt; &lt;/span&gt;&lt;span style=&quot;color: #c586c0;&quot;&gt;default&lt;/span&gt;&lt;span style=&quot;color: #d4d4d4;&quot;&gt; &lt;/span&gt;&lt;span style=&quot;color: #9cdcfe;&quot;&gt;routes&lt;/span&gt;&lt;span style=&quot;color: #d4d4d4;&quot;&gt;;&lt;/span&gt;&lt;/div&gt;&lt;/div&gt;&#10;&#10;" style="shape=document;whiteSpace=wrap;html=1;boundedLbl=1;rounded=1;align=left;" vertex="1" parent="1">
                    <mxGeometry x="280" y="530" width="530" height="470" as="geometry"/>
                </mxCell>
            </root>
        </mxGraphModel>
    </diagram>
</mxfile>